<svg width="60" height="60" viewBox="0 0 60 60" fill="none" xmlns="http://www.w3.org/2000/svg">
<path fill-rule="evenodd" clip-rule="evenodd" d="M30 0C46.569 0 60 13.7698 60 30.7588C60 44.3458 51.414 55.8719 39.501 59.9429C37.98 60.2459 37.44 59.2853 37.44 58.4663C37.44 57.4523 37.476 54.1404 37.476 50.0244C37.476 47.1564 36.516 45.2846 35.439 44.3306C42.12 43.5686 49.14 40.9673 49.14 29.1533C49.14 25.7933 47.976 23.0515 46.05 20.8975C46.362 20.1205 47.391 16.9919 45.756 12.7559C45.756 12.7559 43.242 11.9317 37.515 15.9097C35.118 15.2287 32.55 14.886 30 14.874C27.45 14.886 24.885 15.2287 22.491 15.9097C16.758 11.9317 14.238 12.7559 14.238 12.7559C12.609 16.9919 13.638 20.1205 13.947 20.8975C12.03 23.0515 10.857 25.7933 10.857 29.1533C10.857 40.9373 17.862 43.5785 24.525 44.3555C23.667 45.1235 22.89 46.4783 22.62 48.4673C20.91 49.2533 16.566 50.6136 13.89 45.9126C13.89 45.9126 12.303 42.9572 9.291 42.7412C9.291 42.7412 6.366 42.7024 9.087 44.6104C9.087 44.6104 11.052 45.5554 12.417 49.1104C12.417 49.1104 14.178 54.6002 22.524 52.7402C22.539 55.3112 22.566 57.7343 22.566 58.4663C22.566 59.2793 22.014 60.2308 20.517 59.9458C8.59499 55.8808 0 44.3488 0 30.7588C0 13.7698 13.434 0 30 0Z" fill="black"/>
</svg>
